# xmcd
# Copyright (C) 1995-1998 Ti Kan
#
# Track frame offsets:
#       150
#       13790
#       30702
#       45029
#       61965
#       78099
#       96169
#       118277
#       137495
#       154069
#       172647
#       186394
#
# Disc length: 2698 seconds
#
# Revision: 0
# Processed by: cddbd v1.4b42PL1 Copyright (c) Steve Scherf et al.
# Submitted via: CD-Transfer v1.0
#
DISCID=8b0a880c
DTITLE=Disco Kings - Best Of The Disco Kings
DYEAR=2001
DGENRE=
TTITLE0=That's The Way
TTITLE1=Kiss
TTITLE2=Lady Marmelade
TTITLE3=September
TTITLE4=Give It Up
TTITLE5=Hello
TTITLE6=We Are Family
TTITLE7=Superstition
TTITLE8=Blame It On The Boogie
TTITLE9=Hot Stuff
TTITLE10=Kung Fu Fighting
TTITLE11=I Will Survive
EXTD=
EXTT0=
EXTT1=
EXTT2=
EXTT3=
EXTT4=
EXTT5=
EXTT6=
EXTT7=
EXTT8=
EXTT9=
EXTT10=
EXTT11=
PLAYORDER=
